<?xml version="1.0" standalone="no"?><!-- Generator: Gravit.io --><svg xmlns="http://www.w3.org/2000/svg" xmlns:xlink="http://www.w3.org/1999/xlink" style="isolation:isolate" viewBox="0 0 348.127 428" width="348.127" height="428"><defs><clipPath id="_clipPath_2G4Xtm3POA26p79oK6wwjrO5omYk7Xv9"><rect width="348.127" height="428"/></clipPath></defs><g clip-path="url(#_clipPath_2G4Xtm3POA26p79oK6wwjrO5omYk7Xv9)"><path d=" M 60.296413 295.21405 C 75.289963 338.502869 114.282776 370.590393 161.284973 375.44635 L 161.284973 406.235596 L 135.043823 406.235596 C 127.990829 406.235596 122.264656 411.111755 122.264656 417.117798 C 122.264656 423.12381 127.990829 428 135.043823 428 L 213.746689 428 C 220.799683 428 226.525848 423.12381 226.525848 417.117798 C 226.525848 411.111755 220.799683 406.235596 213.746689 406.235596 L 186.843063 406.235596 L 186.843063 375.372101 C 233.541916 370.270844 272.229004 338.27536 287.142792 295.18869 C 314.589417 296.094452 335.010956 289.367432 343.68869 274.337189 C 356.97345 251.327362 339.643677 214.211533 302.246979 176.450699 C 339.614807 138.658966 356.984497 101.500549 343.68869 78.471489 C 331.201202 56.842606 294.394867 52.407948 247.307129 63.202606 C 245.01651 47.540943 237.747208 32.946335 226.429764 21.628761 C 212.587311 7.786429 193.554016 0 173.943939 0 C 154.333847 0 135.588974 7.786429 121.746635 21.628761 C 110.438614 32.936787 103.172081 47.516449 100.873169 63.162663 C 53.780403 52.402294 16.934887 56.828663 4.439345 78.471489 C -8.846033 101.48259 8.486368 138.601181 45.863464 176.36615 C 8.509858 214.157135 -8.855077 251.310394 4.439345 274.337189 C 13.043996 289.240692 33.19521 295.980408 60.296413 295.21405 Z " fill="rgb(0,0,0)"/><path d=" M 288.468842 189.555191 C 276.488068 200.40274 262.920807 211.170883 248.058517 221.542877 L 248.058517 261.852203 C 248.058517 264.636475 247.90152 267.403412 247.539886 270.131775 C 286.581421 280.545959 316.054657 279.068665 325.011902 263.55423 C 334.348602 247.382584 319.33194 219.532608 288.468842 189.555191 Z " fill="rgb(255,255,255)"/><path d=" M 120.304634 88.507843 L 120.304634 261.852203 C 120.304634 262.674194 120.323357 263.493408 120.345711 264.312012 C 145.860718 255.688782 174.203201 242.855728 202.873138 226.303238 C 211.530304 221.304962 219.878952 216.162994 227.871643 210.930222 L 227.871643 141.878464 C 219.878952 136.645691 211.530304 131.503723 202.873138 126.505455 C 174.179703 109.93927 145.814117 97.098801 120.304634 88.507843 Z " fill="rgb(255,255,255)"/><path d=" M 288.433807 163.274216 C 319.325287 133.288391 334.350616 105.429626 325.011902 89.254471 C 316.087677 73.797295 286.798615 72.273903 248.058517 82.45533 L 248.058517 131.265808 C 262.929596 141.643829 276.503998 152.41864 288.433807 163.274216 Z " fill="rgb(255,255,255)"/><path d=" M 227.871643 234.875107 C 223.017075 237.908951 218.052719 240.893066 212.985611 243.818527 C 182.727203 261.288208 152.486755 274.540192 124.724594 283.149231 C 127.34771 289.361389 131.141632 295.043732 135.877365 299.918762 C 145.970749 310.012146 159.813202 315.779907 173.943939 315.779907 C 188.36319 315.779907 201.91713 310.012146 212.010513 299.918762 C 222.104019 289.825378 227.871643 276.271332 227.871643 261.852203 L 227.871643 234.875107 Z " fill="rgb(255,255,255)"/><path d=" M 227.871643 117.933586 L 227.871643 73.826187 C 227.871643 59.695454 222.104019 45.853123 212.010513 35.759617 C 201.91713 25.666239 188.36319 20.186886 173.943939 20.186886 C 159.813202 20.186886 145.970749 25.666239 135.877365 35.759617 C 127.346329 44.54163 121.87162 56.161674 120.635994 68.345955 C 149.538452 76.986526 181.252167 90.668839 212.985611 108.990036 C 218.052719 111.915619 223.017075 114.899727 227.871643 117.933586 Z " fill="rgb(255,255,255)"/><path d=" M 248.058517 155.827438 L 248.058517 196.981247 C 257.399872 190.163269 266.096466 183.273438 274.040436 176.422058 C 266.127014 169.559479 257.416321 162.657349 248.058517 155.827438 Z " fill="rgb(255,255,255)"/><path d=" M 59.685322 163.215302 C 71.673149 152.360855 85.247932 141.585922 100.117874 131.207901 L 100.117874 82.436745 C 61.367741 72.271889 32.046127 73.787125 23.116148 89.254471 C 13.783587 105.418945 28.783037 133.251709 59.685322 163.215302 Z " fill="rgb(255,255,255)"/><path d=" M 59.683815 189.562607 C 28.794594 219.535507 13.779945 247.383453 23.116148 263.55423 C 32.081802 279.083252 61.602379 280.548737 100.640915 270.177368 C 100.27652 267.434052 100.117874 264.651917 100.117874 261.852203 L 100.117874 221.595749 C 85.234993 211.209457 71.649788 200.425598 59.683815 189.562607 Z " fill="rgb(255,255,255)"/><path d=" M 100.117874 196.970322 L 100.117874 155.830704 C 90.760948 162.653198 82.051163 169.548187 74.097038 176.404587 C 82.056061 183.258499 90.763588 190.150589 100.117874 196.970322 Z " fill="rgb(255,255,255)"/><path d=" M 83.763474 292.898315 C 97.240784 329.510193 132.449219 355.648987 173.714569 355.648987 C 215.039963 355.648987 250.290741 329.434082 263.719574 292.736389 C 257.120911 291.775116 250.171783 290.358093 242.999969 288.598297 C 239.360291 298.063385 233.73938 306.740021 226.429764 314.049622 C 212.587311 328.180359 193.554016 335.966675 173.943939 335.966675 C 154.333847 335.966675 135.588974 328.180359 121.746635 314.049622 C 114.451973 306.754974 108.839096 298.098938 105.20018 288.655853 C 97.775879 290.469757 90.58886 291.917816 83.763474 292.898315 Z " fill="rgb(255,255,255)"/><path d=" M 155.010513 182.029404 C 157.372482 190.023346 163.912979 194.565399 174.995544 194.565399 C 183.897888 194.565399 190.620148 191.11351 194.435425 188.388275 L 208.424973 203.467865 C 200.975937 210.008499 191.528564 214.913818 175.358932 214.913818 C 147.743362 214.913818 129.938538 198.199036 129.938538 174.398727 C 129.938538 150.961823 148.651764 134.247284 172.633698 134.247284 C 200.430908 134.247284 215.510498 154.958725 213.69368 182.029404 L 155.010513 182.029404 Z  M 188.985092 167.858231 C 187.894928 159.31926 182.444458 154.232193 172.815338 154.232193 C 163.186203 154.232193 156.645706 158.592484 154.647125 167.858231 L 188.985092 167.858231 Z " fill-rule="evenodd" fill="rgb(0,0,0)"/></g></svg>