<?xml version="1.0" standalone="no"?><!-- Generator: Gravit.io --><svg xmlns="http://www.w3.org/2000/svg" xmlns:xlink="http://www.w3.org/1999/xlink" style="isolation:isolate" viewBox="0 0 384 512" width="384" height="512"><defs><clipPath id="_clipPath_1MY83MJUuh2IDQ1K5NmtDIvFBiVJ0lUN"><rect width="384" height="512"/></clipPath></defs><g clip-path="url(#_clipPath_1MY83MJUuh2IDQ1K5NmtDIvFBiVJ0lUN)"><path d=" M 224 136 L 224 0 L 24 0 C 10.7 0 0 10.7 0 24 L 0 488 C 0 501.299988 10.7 512 24 512 L 360 512 C 373.299988 512 384 501.299988 384 488 L 384 160 L 248 160 C 234.800003 160 224 149.199997 224 136 Z " fill="rgb(255,255,255)"/><path d=" M 384 121.900002 L 384 128 L 256 128 L 256 0 L 262.100006 0 C 268.5 0 274.600006 2.5 279.100006 7 L 377 105 C 381.5 109.5 384 115.599998 384 121.900002 Z " fill="rgb(255,255,255)"/></g></svg>