<?xml version="1.0" standalone="no"?><!-- Generator: Gravit.io --><svg xmlns="http://www.w3.org/2000/svg" xmlns:xlink="http://www.w3.org/1999/xlink" style="isolation:isolate" viewBox="0 0 222 222" width="222" height="222"><defs><clipPath id="_clipPath_Xq7uuTCR2dJTBbtz6XaDZ8cnSxQsTdRp"><rect width="222" height="222"/></clipPath></defs><g clip-path="url(#_clipPath_Xq7uuTCR2dJTBbtz6XaDZ8cnSxQsTdRp)"><path d=" M 80.619597 29.552132 C 87.888376 29.552132 94.063701 35.465546 94.063701 42.733329 L 94.063701 48.542178 C 101.034718 55.582905 117.73827 67.612889 145.64823 76.218111 C 164.873299 82.145467 198.354097 85.523423 204.461704 86.101021 C 204.765441 85.671806 205.007435 85.25952 205.38387 84.878106 C 207.186375 83.051699 209.546563 82.036919 212.17364 82.020985 C 217.434766 82.020985 221.720946 86.301189 221.754805 91.563311 L 221.998791 130.986403 C 222.01572 133.551738 221.026832 136.082217 219.224326 137.907627 C 217.420824 139.734034 215.010844 140.876285 212.44551 140.876285 L 212.383766 140.876285 C 209.749718 140.876285 207.355672 139.692208 205.616901 137.961404 C 205.101046 142.813231 203.546509 147.482817 200.977191 151.80186 C 196.292668 159.676121 188.820734 165.228038 179.939658 167.482664 C 177.167185 168.187733 174.320023 168.530309 171.477839 168.530309 C 157.524851 168.530309 145.542669 160.117287 140.254655 147.555515 C 115.62406 155.995424 101.035714 166.901082 94.064697 173.466784 L 94.064697 179.266671 C 94.064697 186.535449 87.889372 192.447868 80.620593 192.447868 C 73.351814 192.447868 67.176489 186.534454 67.176489 179.266671 L 67.176489 42.734325 C 67.175493 35.465546 73.351814 29.552132 80.619597 29.552132 Z  M 212.383766 137.727377 L 212.383766 137.727377 L 212.383766 137.729368 L 212.383766 137.727377 Z  M 171.477839 148.063403 C 172.623078 148.063403 173.777279 147.918008 174.905588 147.6312 C 178.491678 146.719989 181.508137 144.466358 183.399274 141.287575 C 183.99679 140.283748 184.442935 139.221166 184.767585 138.1307 C 177.138305 139.142493 168.349844 140.480928 160.14197 142.135051 C 162.674441 145.765955 166.854063 148.063403 171.477839 148.063403 Z " fill="rgb(0,0,0)"/><path d=" M 10.616645 75.986076 C 13.823313 71.335412 20.191835 70.166273 24.839511 73.370949 C 29.48918 76.576621 30.66031 82.944147 27.454638 87.593815 C 22.872689 94.240182 20.451754 102.292702 20.451754 110.879999 C 20.451754 119.436424 22.983229 127.772765 27.580117 134.352409 C 30.814669 138.98216 29.683372 145.357653 25.053621 148.592204 C 23.270037 149.838025 21.227529 150.436536 19.205934 150.436536 C 15.979349 150.436536 12.802557 148.912871 10.813825 146.065709 C 3.739239 135.938813 -0.000214 123.771401 -0.000214 110.879999 C -0.001209 98.127021 3.670525 86.061187 10.616645 75.986076 Z " fill="rgb(0,0,0)"/><path d=" M 36.599617 87.255223 C 39.805289 82.604559 46.173811 81.435419 50.822483 84.640095 C 55.472151 87.845767 56.643282 94.213293 53.43761 98.862962 C 51.113274 102.234942 49.833594 106.51913 49.833594 110.925808 C 49.833594 115.381284 51.136179 119.699331 53.501345 123.083262 C 56.736893 127.712017 55.605596 134.088506 50.976841 137.323058 C 49.193257 138.569874 47.150749 139.168385 45.128158 139.168385 C 41.901573 139.168385 38.725777 137.64472 36.737045 134.798554 C 31.925052 127.913181 29.381627 119.658501 29.381627 110.925808 C 29.381627 102.289714 31.877251 94.103749 36.599617 87.255223 Z " fill="rgb(0,0,0)"/></g></svg>