<?xml version="1.0" standalone="no"?><!-- Generator: Gravit.io --><svg xmlns="http://www.w3.org/2000/svg" xmlns:xlink="http://www.w3.org/1999/xlink" style="isolation:isolate" viewBox="0 0 639 639" width="639" height="639"><defs><clipPath id="_clipPath_HnmkNT5N1yiZRe81QO79mz4RL8kdSpSU"><rect width="639" height="639"/></clipPath></defs><g clip-path="url(#_clipPath_HnmkNT5N1yiZRe81QO79mz4RL8kdSpSU)"><g opacity="0.3"><path d=" M 0 319.5 C 0 143.163151 143.163151 0 319.5 0 C 495.836849 0 639 143.163151 639 319.5 C 639 495.836849 495.836849 639 319.5 639 C 143.163151 639 0 495.836849 0 319.5 Z " fill="rgb(0,0,0)"/></g><path d=" M 427.535714 271.857143 L 412.803571 271.857143 L 412.803571 227.660714 C 412.803571 176.220982 370.939732 134.357143 319.5 134.357143 C 268.060268 134.357143 226.196429 176.220982 226.196429 227.660714 L 226.196429 271.857143 L 211.464286 271.857143 C 195.197545 271.857143 182 285.054688 182 301.321429 L 182 419.178571 C 182 435.445313 195.197545 448.642857 211.464286 448.642857 L 427.535714 448.642857 C 443.802455 448.642857 457 435.445313 457 419.178571 L 457 301.321429 C 457 285.054688 443.802455 271.857143 427.535714 271.857143 Z  M 363.696429 271.857143 L 275.303571 271.857143 L 275.303571 227.660714 C 275.303571 203.291295 295.13058 183.464286 319.5 183.464286 C 343.86942 183.464286 363.696429 203.291295 363.696429 227.660714 L 363.696429 271.857143 Z " fill="rgb(255,255,255)"/></g></svg>