<?xml version="1.0" standalone="no"?><!-- Generator: Gravit.io --><svg xmlns="http://www.w3.org/2000/svg" xmlns:xlink="http://www.w3.org/1999/xlink" style="isolation:isolate" viewBox="0 0 288 155" width="288" height="155"><defs><clipPath id="_clipPath_Jfb7ftrTbSaSwfr6klpGVkGrpw0TPvVJ"><rect width="288" height="155"/></clipPath></defs><g clip-path="url(#_clipPath_Jfb7ftrTbSaSwfr6klpGVkGrpw0TPvVJ)"><path d=" M 141.8 77.5 C 141.8 39.914585 172.314585 9.4 209.9 9.4 C 247.485415 9.4 278 39.914585 278 77.5 C 278 115.085415 247.485415 145.6 209.9 145.6 C 172.314585 145.6 141.8 115.085415 141.8 77.5 Z " fill="rgb(0,0,0)"/><path d=" M 109.8 145.6 L 77.6 145.6 L 55.3 111.2 C 52.7 111.6 49.9 111.8 47.3 111.8 L 37.8 111.8 L 37.8 145.6 L 10 145.6 L 10 9.4 L 47.4 9.4 C 85.2 9.4 107.8 27.6 107.8 60.8 C 107.8 82 98.5 95.4 81.8 103 L 109.8 145.6 L 109.8 145.6 Z  M 46.6 87.3 C 69.3 87.3 79.2 80.1 79.2 60.9 C 79.2 41.7 68.9 34.1 46.6 34.1 L 37.9 34.1 L 37.9 87.3 L 46.6 87.3 L 46.6 87.3 Z " fill="rgb(0,0,0)"/><path d=" M 112.1 9.4 L 140 9.4 L 140 145.5 L 112.2 145.5 L 112.2 9.4 L 112.1 9.4 Z " fill="rgb(0,0,0)"/><g id="Group"><g id="Group"><path d=" M 274.7 66.3 C 270.2 63.4 267.2 58.4 267.1 52.5 C 267 50.4 267.1 48.4 266.9 46.3 C 266.8 45.5 266.7 44.8 266.5 44.1 C 264.1 40 261.2 36.2 258 32.8 C 255.5 31.5 252.7 30.7 249.7 30.9 C 240.4 31.3 233.4 38.6 233.4 48 C 233.4 49.5 233.4 51.1 233.4 52.6 C 233.3 61.7 225.9 69 216.8 69.1 C 207.6 69.2 200.2 62.2 199.9 53 C 199.8 50.5 199.9 48 199.6 45.6 C 198.5 36.9 190.8 30.4 182.3 30.9 C 173.2 31.4 166.3 38.5 166.2 47.6 C 166.2 49.6 166.2 51.5 166.1 53.5 C 165.4 62.6 158.1 69.2 149.1 69.2 C 147.7 69.2 146.3 69 145 68.6 C 144.6 71.6 144.4 74.6 144.4 77.7 C 144.4 80.4 144.6 83 144.9 85.6 C 148.4 86.7 152.1 86.5 156 84.8 C 162.4 82.1 165.9 77 166.3 70 C 166.4 68 166.3 65.9 166.4 63.8 C 167 54.8 174.2 48 183 48 C 191.9 47.9 199.1 54.6 199.8 63.6 C 200 65.6 199.9 67.7 199.9 69.8 C 200.1 75.6 203.2 80.7 207.7 83.7 L 207.7 74.8 L 222.9 74.8 L 222.9 84 C 224.6 79.9 228 76.9 232.4 75.4 C 233.1 73.6 233.5 71.7 233.5 69.7 C 233.5 67.9 233.4 66 233.5 64.1 C 233.9 55.3 241.2 48.3 250 48.2 C 258.9 48.1 266.3 54.8 266.9 63.7 C 267 65.7 267 67.8 267 69.9 C 267.2 76.1 270.5 81.4 275.4 84.2 C 275.6 82.1 275.7 80.1 275.7 78 C 275.6 73.7 275.3 70 274.7 66.3 Z " fill="rgb(255,255,255)"/><path d=" M 233.4 130.7 C 233.5 129.8 233.6 129 233.8 128.1 C 232.9 127.9 232.1 127.7 231.3 127.4 C 228.5 132.7 223.1 136.2 216.7 136.2 C 210.6 136.2 205.4 133.2 202.4 128.4 C 201.2 128.3 200.1 128 199.1 127.7 C 199.3 128.6 199.5 129.6 199.6 130.6 C 199.8 132.6 199.7 134.7 199.7 136.8 C 199.8 138.8 200.2 140.8 200.9 142.6 C 203.8 143 206.8 143.2 209.8 143.2 C 218 143.2 225.8 141.7 233 139 C 233.1 138.2 233.2 137.4 233.2 136.6 C 233.4 134.6 233.3 132.6 233.4 130.7 Z " fill="rgb(255,255,255)"/><path d=" M 233.7 112.4 C 235.2 113.9 237 114.6 239.2 114.6 C 241.2 114.6 243.3 113.9 243.3 112.4 C 243.3 111 242.5 110.3 237.7 108.2 L 235.3 107.2 C 234.7 108.3 234.3 109.5 234 110.7 C 233.8 111.2 233.7 111.8 233.7 112.4 Z " fill="rgb(255,255,255)"/><path d=" M 251.3 98.2 C 255.9 101.4 258.5 105.6 258.5 112.2 C 258.5 113.9 258.3 115.5 257.8 116.9 C 258.9 117.5 259.9 118.1 260.9 118.9 C 262.9 116.4 264.8 113.7 266.5 110.9 C 264.9 103.9 258.9 98.8 251.3 98.2 Z " fill="rgb(255,255,255)"/><path d=" M 182.5 115 C 184.2 115 185.9 115.2 187.4 115.6 L 198.6 108.8 C 196.1 102.2 189.4 97.6 182.2 98.1 C 173.2 98.6 166.3 105.6 166.1 114.5 C 166.1 116.6 166.2 118.6 166 120.7 C 165.8 122.4 165.5 124 165 125.5 C 165.6 126.1 166.3 126.7 166.9 127.2 C 169 120.2 175.2 115.2 182.5 115 Z " fill="rgb(255,255,255)"/><path d=" M 266.8 79.3 C 265.9 70.5 258.4 64.2 249.3 64.5 C 242.9 64.7 237.3 68.7 234.8 74.3 C 236.1 74 237.4 73.9 238.8 73.9 C 245.8 73.9 250.8 76.5 254.4 81.8 C 261.2 83.6 266.4 89.6 266.8 97 C 266.9 99.2 266.8 101.3 266.9 103.5 C 267 105.2 267.3 106.9 267.9 108.4 C 269.6 105.1 271.1 101.7 272.3 98.1 C 269.2 95.1 267.2 90.8 267 86 C 267 83.8 267.1 81.6 266.8 79.3 Z " fill="rgb(255,255,255)"/><path d=" M 225.1 100.3 C 224.4 100.7 223.6 101.1 222.8 101.5 L 222.8 111.1 C 222.8 111.4 222.8 111.7 222.8 112 L 230.3 107.6 L 231.6 109.8 C 231.6 109.9 231.7 109.9 231.7 110 C 232.3 108.8 232.7 107.5 233 106.1 C 230.1 104.7 227.3 102.9 225.1 100.3 Z " fill="rgb(255,255,255)"/><path d=" M 166.1 103.2 C 166.2 101.4 166.1 99.5 166.2 97.7 C 166.7 88.6 173.9 81.5 182.7 81.4 C 191.5 81.2 198.9 88.1 199.6 97.3 C 199.8 99.4 199.6 101.6 199.7 103.8 C 199.9 108 201.7 111.8 204.4 114.6 C 204.5 114.6 204.7 114.6 204.8 114.6 C 206.6 114.6 207.5 114.4 207.5 111 L 207.5 100 C 203 97.1 200 92.1 199.8 86.2 C 199.7 83.7 199.8 81.2 199.5 78.8 C 198.3 70 190.7 64 181.6 64.5 C 173 65 166.2 72.2 166 81 C 166 83 166.1 84.9 165.9 86.9 C 165.3 93.5 162.1 98.4 156.1 101.1 C 153.7 102.2 151.4 102.7 149.2 102.7 C 151.4 107.9 154.2 112.8 157.6 117.3 C 163 114.4 165.8 109.5 166.1 103.2 Z " fill="rgb(255,255,255)"/><path d=" M 246.4 132.1 C 243.1 132.8 240.2 134.5 238 136.9 C 240.9 135.5 243.8 133.9 246.4 132.1 Z " fill="rgb(255,255,255)"/><path d=" M 181.5 131.8 C 179.4 131.9 177.4 132.5 175.5 133.4 C 182.4 137.7 190.2 140.7 198.5 142.1 C 195.9 135.5 189.2 131.3 181.5 131.8 Z " fill="rgb(255,255,255)"/><path d=" M 199.7 29.9 C 199.9 31.9 199.8 34 199.8 36.1 C 200.1 45.2 207.5 52.3 216.6 52.3 C 225.9 52.3 233.3 45 233.4 35.7 C 233.4 33.9 233.3 32 233.4 30.2 C 233.6 25.6 235.7 21.5 238.9 18.5 C 237 17.6 235.1 16.7 233.1 16 C 232.9 19.4 232.6 22.9 231.4 25.9 C 228.4 33.1 220.5 36.7 212.8 34.9 C 205.3 33.2 199.9 26.7 199.9 19 C 199.9 16.8 199.8 14.7 199.6 12.6 C 195.9 13.2 192.4 14.1 188.9 15.2 C 194.8 17.5 199.1 23.1 199.7 29.9 Z " fill="rgb(255,255,255)"/><path d=" M 166.1 36.1 C 166.2 34.2 166.1 32.2 166.2 30.2 C 166.2 29.5 166.3 28.9 166.4 28.3 C 159 34.9 153 43.1 149.2 52.4 C 151.5 52.4 153.8 51.9 156.2 50.8 C 162.4 48 165.8 43 166.1 36.1 Z " fill="rgb(255,255,255)"/><path d=" M 217.5 18.8 C 221.7 18.5 225.2 16.9 228 14.3 C 222.3 12.7 216.2 11.8 210 11.8 C 207.7 11.8 205.5 11.9 203.3 12.1 C 206.6 16.5 211.9 19.2 217.5 18.8 Z " fill="rgb(255,255,255)"/></g><g id="Group"><path d=" M 190.4 116.9 L 198.5 112 C 200.1 114.8 201.5 117.1 204.9 117.1 C 208.2 117.1 210.2 115.8 210.2 110.9 L 210.2 77.1 L 220.1 77.1 L 220.1 111 C 220.1 121.3 214.1 126 205.3 126 C 197.4 126 192.8 121.9 190.4 116.9 Z " fill="rgb(255,237,0)"/></g><g id="Group"><path d=" M 221.3 115.9 L 229.4 111.2 C 231.5 114.7 234.3 117.2 239.2 117.2 C 243.3 117.2 245.9 115.1 245.9 112.3 C 245.9 108.9 243.2 107.7 238.7 105.7 L 236.2 104.6 C 229 101.5 224.3 97.7 224.3 89.6 C 224.3 82.2 230 76.5 238.8 76.5 C 245.1 76.5 249.7 78.7 252.9 84.4 L 245.2 89.4 C 243.5 86.3 241.7 85.1 238.8 85.1 C 235.9 85.1 234 86.9 234 89.4 C 234 92.4 235.8 93.6 240.1 95.4 L 242.6 96.5 C 251 100.1 255.8 103.8 255.8 112.1 C 255.8 121 248.8 125.9 239.3 125.9 C 230.2 126 224.2 121.6 221.3 115.9 Z " fill="rgb(255,237,0)"/></g></g></g></svg>