<?xml version="1.0" standalone="no"?><!-- Generator: Gravit.io --><svg xmlns="http://www.w3.org/2000/svg" xmlns:xlink="http://www.w3.org/1999/xlink" style="isolation:isolate" viewBox="0 0 478.883 42.316" width="478.883" height="42.316"><defs><clipPath id="_clipPath_VfTPYPV4mKcAFGFjb7ey23G4IRVGqraI"><rect width="478.883" height="42.316"/></clipPath></defs><g clip-path="url(#_clipPath_VfTPYPV4mKcAFGFjb7ey23G4IRVGqraI)"><path d=" M 285.528194 7.658999 L 281.699203 7.658999 L 281.699203 34.655998 L 285.528194 34.655998 L 285.528194 38.486 L 289.358196 38.486 L 289.358196 42.316002 L 316.1642 42.316002 L 316.1642 38.486 L 319.994202 38.486 L 319.994202 34.655998 L 323.824203 34.655998 L 323.824203 7.658999 L 319.994202 7.658999 L 319.994202 3.829001 L 316.1642 3.829001 L 316.1642 -0.000001 L 289.358196 -0.000001 L 289.358196 3.829001 L 285.528194 3.829001 L 285.528194 7.658999 Z  M 292.804195 11.298003 L 297.017197 11.298003 L 297.017197 26.616005 L 308.122208 26.616005 L 308.122208 11.298003 L 312.335205 11.298003 L 312.335205 26.997 L 308.505203 26.997 L 308.505203 30.827002 L 296.634201 30.827002 L 296.634201 26.997 L 292.804195 26.997 L 292.804195 11.298003 Z " fill-rule="evenodd" fill="rgb(255,121,0)"/><path d=" M 471.224012 3.829501 L 471.224012 0.000498 L 444.035994 0.000498 L 444.035994 3.829501 L 440.207014 3.829501 L 440.207014 7.659499 L 436.37599 7.659499 L 436.37599 34.6565 L 440.207014 34.6565 L 440.207014 38.486502 L 444.035994 38.486502 L 444.035994 42.315497 L 471.224012 42.315497 L 471.224012 38.486502 L 475.054029 38.486502 L 475.054029 34.6565 L 478.883009 34.6565 L 478.883009 7.659499 L 475.054029 7.659499 L 475.054029 3.829501 L 471.224012 3.829501 Z  M 467.394972 23.360503 L 463.565016 23.360503 L 463.565016 26.6165 L 467.394972 26.6165 L 467.394972 30.827498 L 463.183973 30.827498 L 463.183973 26.997496 L 452.076979 26.997496 L 452.076979 30.827498 L 447.866011 30.827498 L 447.866011 11.297499 L 463.565016 11.297499 L 463.565016 15.127501 L 467.394972 15.127501 L 467.394972 23.360503 Z " fill-rule="evenodd" fill="rgb(255,121,0)"/><path d=" M 423.354506 7.658999 L 423.354506 3.829001 L 419.525496 3.829001 L 419.525496 -0.000001 L 392.337507 -0.000001 L 392.337507 3.829001 L 388.50749 3.829001 L 388.50749 7.658999 L 384.678511 7.658999 L 384.678511 34.655997 L 388.50749 34.655997 L 388.50749 38.485999 L 392.337507 38.485999 L 392.337507 42.316001 L 419.525496 42.316001 L 419.525496 38.485999 L 423.354506 38.485999 L 423.354506 34.655997 L 427.184492 34.655997 L 427.184492 7.658999 L 423.354506 7.658999 Z  M 396.166487 11.298003 L 415.695509 11.298003 L 415.695509 15.701003 L 400.377485 15.701003 L 400.377485 18.956999 L 411.866499 18.956999 L 411.866499 23.360999 L 400.377485 23.360999 L 400.377485 26.616004 L 415.695509 26.616004 L 415.695509 30.827002 L 396.166487 30.827002 L 396.166487 11.298003 Z " fill-rule="evenodd" fill="rgb(255,121,0)"/><path d=" M 336.809187 3.829001 L 336.809187 7.658999 L 332.9792 7.658999 L 332.9792 34.655997 L 336.809187 34.655997 L 336.809187 38.485999 L 340.638197 38.485999 L 340.638197 42.316001 L 367.826185 42.316001 L 367.826185 38.485999 L 371.656202 38.485999 L 371.656202 34.655997 L 375.486189 34.655997 L 375.486189 7.658999 L 371.656202 7.658999 L 371.656202 3.829001 L 367.826185 3.829001 L 367.826185 -0.000001 L 340.638197 -0.000001 L 340.638197 3.829001 L 336.809187 3.829001 Z  M 344.468214 11.298003 L 360.167189 11.298003 L 360.167189 15.126998 L 363.997206 15.126998 L 363.997206 19.530997 L 360.167189 19.530997 L 360.167189 22.786002 L 363.997206 22.786002 L 363.997206 26.997 L 360.167189 26.997 L 360.167189 30.827002 L 344.468214 30.827002 L 344.468214 11.298003 Z " fill-rule="evenodd" fill="rgb(255,121,0)"/><path d=" M 359.7868 15.7014 L 348.6798 15.7014 L 348.6798 18.9574 L 359.7868 18.9574 L 359.7868 15.7014 L 359.7868 15.7014 Z " fill="rgb(255,121,0)"/><path d=" M 359.7868 23.3604 L 348.6798 23.3604 L 348.6798 26.6164 L 359.7868 26.6164 L 359.7868 23.3604 L 359.7868 23.3604 Z " fill="rgb(255,121,0)"/><path d=" M 463.1838 15.7014 L 452.0768 15.7014 L 452.0768 22.7864 L 463.1838 22.7864 L 463.1838 15.7014 L 463.1838 15.7014 Z " fill="rgb(255,121,0)"/><path d=" M 210.432295 7.658999 L 206.602308 7.658999 L 206.602308 34.655997 L 210.432295 34.655997 L 210.432295 38.485999 L 214.261305 38.485999 L 214.261305 42.316001 L 241.453291 42.316001 L 241.453291 38.485999 L 245.282301 38.485999 L 245.282301 34.655997 L 249.112288 34.655997 L 249.112288 7.658999 L 245.282301 7.658999 L 245.282301 3.829001 L 241.453291 3.829001 L 241.453291 -0.000001 L 214.261305 -0.000001 L 214.261305 3.829001 L 210.432295 3.829001 L 210.432295 7.658999 Z  M 217.900312 11.298003 L 233.794294 11.298003 L 233.794294 15.126998 L 237.624311 15.126998 L 237.624311 23.360999 L 233.794294 23.360999 L 233.794294 26.616004 L 237.624311 26.616004 L 237.624311 30.827002 L 233.218306 30.827002 L 233.218306 26.997 L 222.306288 26.997 L 222.306288 30.827002 L 217.900312 30.827002 L 217.900312 11.298003 Z " fill-rule="evenodd" fill="rgb(255,121,0)"/><path d=" M 233.2178 15.7014 L 222.3058 15.7014 L 222.3058 22.7864 L 233.2178 22.7864 L 233.2178 15.7014 L 233.2178 15.7014 Z " fill="rgb(255,121,0)"/><path d=" M 189.754698 3.829199 L 189.754698 0.000201 L 162.562696 0.000201 L 162.562696 3.829199 L 158.733702 3.829199 L 158.733702 7.659201 L 154.9037 7.659201 L 154.9037 34.656203 L 158.733702 34.656203 L 158.733702 38.486197 L 162.562696 38.486197 L 162.562696 42.315199 L 189.754698 42.315199 L 189.754698 38.486197 L 193.5847 38.486197 L 193.5847 34.656203 L 197.41371 34.656203 L 197.41371 7.659201 L 193.5847 7.659201 L 193.5847 3.829199 L 189.754698 3.829199 Z  M 182.095701 18.957198 L 182.095701 23.360198 L 170.606703 23.360198 L 170.606703 26.616202 L 185.925703 26.616202 L 185.925703 30.827201 L 166.201704 30.827201 L 166.201704 11.298201 L 185.925703 11.298201 L 185.925703 15.701201 L 170.606703 15.701201 L 170.606703 18.957198 L 182.095701 18.957198 Z " fill-rule="evenodd" fill="rgb(255,121,0)"/><path d=" M 145.714903 7.658999 L 141.885893 7.658999 L 141.885893 3.829001 L 138.055906 3.829001 L 138.055906 -0.000001 L 111.056898 -0.000001 L 111.056898 3.829001 L 107.226896 3.829001 L 107.226896 7.658999 L 103.397902 7.658999 L 103.397902 34.655997 L 107.226896 34.655997 L 107.226896 38.485999 L 111.056898 38.485999 L 111.056898 42.316001 L 138.055906 42.316001 L 138.055906 38.485999 L 141.885893 38.485999 L 141.885893 34.655997 L 145.714903 34.655997 L 145.714903 7.658999 Z  M 114.502897 11.298003 L 130.396894 11.298003 L 130.396894 15.126998 L 134.226896 15.126998 L 134.226896 23.167998 L 130.396894 23.167998 L 130.396894 26.997 L 118.715895 26.997 L 118.715895 30.827002 L 114.502897 30.827002 L 114.502897 11.298003 Z " fill-rule="evenodd" fill="rgb(255,121,0)"/><path d=" M 129.8208 15.7014 L 118.7158 15.7014 L 118.7158 22.7864 L 129.8208 22.7864 L 129.8208 15.7014 L 129.8208 15.7014 Z " fill="rgb(255,121,0)"/><path d=" M 55.528196 7.658999 L 51.699202 7.658999 L 51.699202 34.655997 L 55.528196 34.655997 L 55.528196 38.485999 L 59.358198 38.485999 L 59.358198 42.316001 L 86.164198 42.316001 L 86.164198 38.485999 L 89.9942 38.485999 L 89.9942 34.655997 L 93.824202 34.655997 L 93.824202 7.658999 L 89.9942 7.658999 L 89.9942 3.829001 L 86.164198 3.829001 L 86.164198 -0.000001 L 59.358198 -0.000001 L 59.358198 3.829001 L 55.528196 3.829001 L 55.528196 7.658999 Z  M 62.804197 11.298003 L 67.017195 11.298003 L 67.017195 26.616004 L 78.122206 26.616004 L 78.122206 11.298003 L 82.335203 11.298003 L 82.335203 26.997 L 78.505201 26.997 L 78.505201 30.827002 L 66.634199 30.827002 L 66.634199 26.997 L 62.804197 26.997 L 62.804197 11.298003 Z " fill-rule="evenodd" fill="rgb(255,121,0)"/><path d=" M 3.83 3.829001 L 3.83 7.658999 L -0.000002 7.658999 L -0.000002 34.655997 L 3.83 34.655997 L 3.83 38.485999 L 7.659002 38.485999 L 7.659002 42.316001 L 34.466002 42.316001 L 34.466002 38.485999 L 38.294996 38.485999 L 38.294996 34.655997 L 42.124998 34.655997 L 42.124998 7.658999 L 38.294996 7.658999 L 38.294996 3.829001 L 34.466002 3.829001 L 34.466002 -0.000001 L 7.659002 -0.000001 L 7.659002 3.829001 L 3.83 3.829001 Z  M 14.935003 11.298003 L 30.636 11.298003 L 30.636 15.701003 L 15.317999 15.701003 L 15.317999 18.956999 L 26.806997 18.956999 L 26.806997 22.786002 L 30.636 22.786002 L 30.636 26.997 L 26.806997 26.997 L 26.806997 31.020003 L 11.105001 31.020003 L 11.105001 26.616004 L 26.423002 26.616004 L 26.423002 23.360999 L 14.935003 23.360999 L 14.935003 19.530997 L 11.105001 19.530997 L 11.105001 15.126998 L 14.935003 15.126998 L 14.935003 11.298003 Z " fill-rule="evenodd" fill="rgb(255,121,0)"/></g></svg>