<?xml version="1.0" standalone="no"?><!-- Generator: Gravit.io --><svg xmlns="http://www.w3.org/2000/svg" xmlns:xlink="http://www.w3.org/1999/xlink" style="isolation:isolate" viewBox="0 0 542.706 101.016" width="542.706" height="101.016"><defs><clipPath id="_clipPath_8DzAXyaRtYsh1rGZAwlaGXMr6BnTYOob"><rect width="542.706" height="101.016"/></clipPath></defs><g clip-path="url(#_clipPath_8DzAXyaRtYsh1rGZAwlaGXMr6BnTYOob)"><path d=" M 131.189435 28.869088 L 131.189435 70.246261 C 131.189435 73.597799 130.592453 76.269865 129.415511 78.191718 C 127.920688 80.630651 125.514771 81.817242 122.06342 81.817242 C 120.283825 81.817242 117.763439 81.444626 115.856109 79.669224 C 113.851345 77.807147 112.835237 74.636935 112.835237 70.246261 L 112.835237 28.869088 L 94.356164 28.869088 L 94.356164 69.929436 C 94.356164 80.606741 97.325946 88.781352 103.185099 94.229095 C 107.965701 98.668593 114.492792 101.015864 122.06342 101.015864 C 127.303833 101.015864 134.816745 99.837244 140.8443 94.223118 C 146.700619 88.770393 149.668508 80.594786 149.668508 69.929436 L 149.668508 28.869088 L 131.189435 28.869088 L 131.189435 28.869088 Z " fill-rule="evenodd" fill="rgb(255,242,0)"/><path d=" M 429.483906 97.736465 L 449.005913 97.736465 L 449.005913 28.869088 L 429.483906 28.869088 L 429.483906 97.736465 L 429.483906 97.736465 Z " fill-rule="evenodd" fill="rgb(255,242,0)"/><path d=" M 214.292347 37.466807 C 208.9545 31.761917 201.032051 28.869088 190.746638 28.869088 L 162.683175 28.869088 L 162.683175 97.736465 L 181.463467 97.736465 L 181.463467 85.212562 L 190.746638 85.212562 C 201.039754 85.212562 208.963179 82.313896 214.296212 76.596352 C 218.845767 71.72146 221.249196 64.941364 221.249196 56.989743 C 221.249196 49.082876 218.842878 42.331 214.292347 37.466807 Z  M 201.137682 59.136718 L 200.554406 61.670317 L 199.731238 63.261925 L 197.878495 65.00667 L 196.5452 65.657524 L 194.96875 66.112583 L 192.822116 66.405778 L 191.052137 66.467079 L 181.463467 66.467079 L 181.463467 47.61554 L 191.052137 47.61554 L 193.687662 47.758762 L 195.897495 48.199528 L 197.699743 48.954502 L 199.112579 50.040353 L 200.087005 51.351191 L 200.867848 53.370531 L 201.159412 55.059014 L 201.254666 56.989743 L 201.137682 59.136718 L 201.137682 59.136718 Z " fill-rule="evenodd" fill="rgb(255,242,0)"/><path d=" M 344.292343 37.466808 C 338.954498 31.761917 331.032043 28.869087 320.746643 28.869087 L 292.683182 28.869087 L 292.683182 97.736465 L 311.46347 97.736465 L 311.46347 85.212563 L 320.746643 85.212563 C 321.152383 85.212563 321.554441 85.208059 321.952804 85.199055 Q 328.575 97.5125 328.707465 97.736465 L 351.249192 97.736465 Q 351.2 97.7 340.569428 79.843294 C 341.926031 78.887418 343.168989 77.804853 344.296219 76.596352 C 348.845764 71.721458 351.249191 64.94136 351.249191 56.989742 C 351.249191 49.082874 348.84288 42.331001 344.292343 37.466808 Z  M 331.13768 59.136719 L 330.554413 61.670319 L 329.731232 63.261925 L 327.878494 65.006668 L 326.545197 65.657524 L 324.96875 66.112579 L 322.822113 66.405777 L 321.052139 66.467079 L 311.46347 66.467079 L 311.46347 47.61554 L 321.052139 47.61554 L 323.687668 47.758762 L 325.897491 48.199528 L 327.699738 48.954502 L 329.112579 50.040352 L 330.087006 51.351192 L 330.867844 53.370529 L 331.159409 55.059013 L 331.254669 56.989742 L 331.13768 59.136719 Z " fill-rule="evenodd" fill="rgb(255,242,0)"/><path d=" M 276.561527 97.736465 L 276.561527 78.731893 L 249.150823 78.731893 L 249.150823 71.156726 L 267.352119 71.156726 L 267.352119 55.382663 L 249.150823 55.382663 L 249.150823 47.930099 L 276.561527 47.930099 L 276.561527 28.869088 L 231.010186 28.869088 L 231.010186 97.736465 L 276.561527 97.736465 L 276.561527 97.736465 Z " fill-rule="evenodd" fill="rgb(255,242,0)"/><path d=" M 399.519879 28.869088 L 389.153415 61.614058 L 378.552982 28.869088 L 357.903231 28.869088 L 382.457426 97.736465 L 395.864888 97.736465 L 419.722902 28.869088 L 399.519879 28.869088 L 399.519879 28.869088 Z " fill-rule="evenodd" fill="rgb(255,242,0)"/><path d=" M 542.705566 0 L 34.140628 0 C 15.31506 0 0 15.076319 0 33.608424 C 0 52.14053 15.31506 67.217807 34.140628 67.217807 L 60.489826 67.217807 C 63.65297 67.217807 66.227155 69.750904 66.227155 72.866648 C 66.227155 75.979531 63.65297 78.512628 60.489826 78.512628 L 34.035837 78.512628 L 34.035837 97.12401 L 60.489826 97.12401 C 74.075827 97.12401 85.132287 86.242779 85.132287 72.866648 C 85.132287 59.488613 74.075827 48.607378 60.489826 48.607378 L 34.140628 48.607378 C 25.739855 48.607378 18.905132 41.879198 18.905132 33.608424 C 18.905132 25.33861 25.739855 18.610429 34.140628 18.610429 L 508.463088 18.610429 L 458.253486 97.125923 L 518.922813 97.125923 L 518.922813 78.565163 L 492.447448 78.565163 L 542.705566 0 L 542.705566 0 Z " fill-rule="evenodd" fill="rgb(255,242,0)"/></g></svg>