<?xml version="1.0" standalone="no"?><!-- Generator: Gravit.io --><svg xmlns="http://www.w3.org/2000/svg" xmlns:xlink="http://www.w3.org/1999/xlink" style="isolation:isolate" viewBox="0 0 419 396" width="419" height="396"><defs><clipPath id="_clipPath_I1QWllPSaluHcAcc5tA0O1oGhnpDUeng"><rect width="419" height="396"/></clipPath></defs><g clip-path="url(#_clipPath_I1QWllPSaluHcAcc5tA0O1oGhnpDUeng)"><path d=" M 40.346839 172.941246 C 42.184319 165.313149 44.531931 157.815845 47.374961 150.500446 L 53.58258 153.858239 C 51.101015 160.344328 49.024094 166.977442 47.363026 173.719358 L 40.346839 172.941246 Z " fill="rgb(0,0,0)"/><path d=" M 37.873623 242.626656 C 36.447991 234.047745 35.660811 225.374092 35.518016 216.676812 L 42.53411 217.454814 C 42.701948 225.213454 43.404729 232.951008 44.637033 240.611648 L 37.873623 242.626656 Z " fill="rgb(0,0,0)"/><path d=" M 61.314532 305.620525 C 57.228122 298.927477 53.593499 291.968782 50.435559 284.790438 L 57.198951 282.77536 C 60.025969 289.112272 63.241085 295.268913 66.825704 301.20973 L 61.314532 305.620525 Z " fill="rgb(0,0,0)"/><path d=" M 108.805071 356.693841 C 101.728199 351.630698 95.038638 346.047106 88.791299 339.990425 L 94.302821 335.579228 C 99.905242 340.954694 105.872693 345.935698 112.162854 350.486203 L 108.805071 356.693841 Z " fill="rgb(0,0,0)"/><path d=" M 169.940221 384.65289 C 162.312824 382.815526 154.816189 380.468123 147.501448 377.625395 L 150.859216 371.417752 C 157.344672 373.899039 163.977121 375.975736 170.718353 377.63669 L 169.940221 384.65289 Z " fill="rgb(0,0,0)"/><path d=" M 239.626666 387.126326 C 231.047757 388.551951 222.374104 389.339131 213.67682 389.481937 L 214.454819 382.465854 C 222.213425 382.298021 229.95095 381.595232 237.61159 380.362927 L 239.626666 387.126326 Z " fill="rgb(0,0,0)"/><path d=" M 302.62053 363.685432 C 295.926611 367.772377 288.966987 371.407413 281.787594 374.565641 L 279.772586 367.802231 C 286.110478 364.974943 292.268009 361.759434 298.209659 358.1743 L 302.62053 363.685432 Z " fill="rgb(0,0,0)"/><path d=" M 119.37836 64.315189 C 126.071185 60.228829 133.029661 56.594242 140.20781 53.436312 L 142.222879 60.199709 C 135.886171 63.026712 129.729756 66.241794 123.78915 69.826351 L 119.37836 64.315189 Z " fill="rgb(0,0,0)"/><path d=" M 381.652868 255.059727 C 379.815698 262.686401 377.468576 270.182341 374.626208 277.496443 L 368.41854 274.138651 C 370.899484 267.653886 372.975914 261.022186 374.636665 254.281706 L 381.652868 255.059727 Z " fill="rgb(0,0,0)"/><path d=" M 384.126019 185.371434 C 385.552142 193.952737 386.339454 202.62883 386.482031 211.328584 L 379.46598 210.550483 C 379.298333 202.789441 378.595402 195.049505 377.362649 187.386519 L 384.126019 185.371434 Z " fill="rgb(0,0,0)"/><path d=" M 360.684785 122.37835 C 364.77167 129.072051 368.406671 136.03148 371.564909 143.210636 L 364.801496 145.225652 C 361.9742 138.887989 358.758722 132.730667 355.173655 126.789215 L 360.684785 122.37835 Z " fill="rgb(0,0,0)"/><path d=" M 313.193075 71.304812 C 320.271535 76.368964 326.962494 81.95376 333.211054 88.011854 L 327.699497 92.422961 C 322.095853 87.046137 316.127021 82.063926 309.835324 77.512453 L 313.193075 71.304812 Z " fill="rgb(0,0,0)"/><path d=" M 252.058711 43.346832 C 259.686079 45.184136 267.182701 47.531479 274.49743 50.374143 L 271.139648 56.581778 C 264.654231 54.10057 258.021861 52.02393 251.280703 50.363044 L 252.058711 43.346832 Z " fill="rgb(0,0,0)"/><path d=" M 182.371443 40.87393 C 190.952763 39.447805 199.628856 38.660493 208.328591 38.517926 L 207.550471 45.533986 C 199.789414 45.701629 192.049464 46.404555 184.386457 47.637326 L 182.371443 40.87393 Z " fill="rgb(0,0,0)"/><path d=" M 68.306119 111.805065 C 73.369031 104.728536 78.95232 98.03928 85.008663 91.792203 L 89.419102 97.3028 C 84.044601 102.904564 79.063842 108.872332 74.513522 115.162695 L 68.306119 111.805065 Z " fill="rgb(0,0,0)"/><path d=" M 353.695151 316.19307 C 348.630765 323.271872 343.045646 329.963146 336.987226 336.211956 L 332.576135 330.700403 C 337.953286 325.096479 342.935812 319.127329 347.487513 312.835288 L 353.695151 316.19307 Z " fill="rgb(0,0,0)"/></g></svg>