<?xml version="1.0" standalone="no"?><!-- Generator: Gravit.io --><svg xmlns="http://www.w3.org/2000/svg" xmlns:xlink="http://www.w3.org/1999/xlink" style="isolation:isolate" viewBox="0 0 413.434 365.723" width="413.434" height="365.723"><defs><clipPath id="_clipPath_lC1GoCwOU9Bul6yxuKmImXjo53ZiBBUl"><rect width="413.434023" height="365.722821"/></clipPath></defs><g clip-path="url(#_clipPath_lC1GoCwOU9Bul6yxuKmImXjo53ZiBBUl)"><path d=" M 222.510636 22.182968 C 222.510636 22.182968 217.340654 10.998984 206.717656 10.999984 C 196.094669 10.999984 190.911684 22.181968 190.911684 22.181968 L 14.759924 327.303536 C 14.759924 327.303536 7.660934 337.372524 12.971926 346.573514 C 18.28392 355.773499 30.559902 354.669502 30.559902 354.669502 L 382.879412 354.680494 C 382.879412 354.680494 395.149394 355.794497 400.46039 346.594522 C 405.772381 337.395523 398.679391 327.316539 398.679391 327.316539 L 222.510636 22.182968 Z " fill="rgb(255,255,0)" vector-effect="non-scaling-stroke" stroke-width="21.999968" stroke="rgb(0,0,0)" stroke-linejoin="round" stroke-linecap="round" stroke-miterlimit="4"/><path d=" M 244.086586 136.652798 C 243.020588 141.086792 223.688616 221.906673 221.28762 231.407659 C 218.887623 240.909645 216.619626 249.913632 214.48063 258.418619 C 214.48063 258.418619 213.369631 263.784611 207.55764 263.784611 L 205.805642 263.784611 C 199.993651 263.784611 198.882652 258.418619 198.882652 258.418619 C 196.743656 249.913632 194.476659 240.909645 192.075662 231.407659 C 189.675666 221.906673 170.346694 141.086792 169.277696 136.652798 C 155.580716 79.853882 258.165565 78.282884 244.086586 136.652798 Z " fill="rgb(0,0,0)"/><path d=" M 182.460676 308.545535 C 182.460676 295.158303 193.329409 284.28957 206.716641 284.28957 C 220.103873 284.28957 230.972606 295.158303 230.972606 308.545535 C 230.972606 321.932768 220.103873 332.801501 206.716641 332.801501 C 193.329409 332.801501 182.460676 321.932768 182.460676 308.545535 Z " fill="rgb(0,0,0)"/></g></svg>